<svg width="478" height="452" viewBox="0 0 478 452" fill="none" xmlns="http://www.w3.org/2000/svg">
<path d="M282.813 365.842L274.525 364.671V324.035L282.813 324.915V365.842Z" fill="#999999" stroke="#263238" stroke-linecap="round" stroke-linejoin="round"/>
<path d="M469.147 344.684L88.1703 304.276V73.2237L469.147 23.9568V344.684Z" fill="white" stroke="#263238" stroke-linecap="round" stroke-linejoin="round"/>
<path d="M472.401 23.5425L84.8961 73.6694C82.223 74.0217 80.0471 72.6333 80.0471 70.4678V66.9347C80.0471 64.8625 82.223 62.7902 84.8961 62.4172L472.401 7.82469C475.074 7.44133 477.25 9.55499 477.25 12.539V17.5123C477.275 18.926 476.804 20.3038 475.917 21.4057C475.031 22.5076 473.787 23.2638 472.401 23.5425Z" fill="#999999" stroke="#263238" stroke-linecap="round" stroke-linejoin="round"/>
<path d="M462.071 13.5025L468.847 12.5286" stroke="white" stroke-linecap="round" stroke-linejoin="round"/>
<path d="M443.866 16.1135L454.227 14.6318" stroke="white" stroke-linecap="round" stroke-linejoin="round"/>
<path d="M120.238 62.2514L437.753 16.9631" stroke="white" stroke-linecap="round" stroke-linejoin="round"/>
<path d="M88.4707 66.7897L112.042 63.4224" stroke="white" stroke-linecap="round" stroke-linejoin="round"/>
<path d="M316.052 310.431L251.254 304.597V213.078L316.104 212.933L316.052 310.431Z" fill="#7E8AF5"/>
<path opacity="0.8" d="M316.052 310.431L251.254 304.597V213.078L316.104 212.933L316.052 310.431Z" fill="white"/>
<path d="M380.902 316.264L316.052 310.431V212.974L380.902 212.84V316.264Z" fill="#7E8AF5"/>
<path opacity="0.6" d="M380.902 316.264L316.052 310.431V212.974L380.902 212.84V316.264Z" fill="white"/>
<path d="M445.742 322.097L380.902 316.264V212.798L445.742 212.653V322.097Z" fill="#7E8AF5"/>
<path opacity="0.4" d="M445.742 322.097L380.902 316.264V212.798L445.742 212.653V322.097Z" fill="white"/>
<path d="M445.742 212.653L251.254 213.078" stroke="#7F7F7F" stroke-linecap="round" stroke-linejoin="round"/>
<path d="M251.254 226.154L445.793 228.288" stroke="#7F7F7F" stroke-linecap="round" stroke-linejoin="round"/>
<path d="M445.742 243.923L251.254 239.229" stroke="#7F7F7F" stroke-linecap="round" stroke-linejoin="round"/>
<path d="M251.254 252.346L445.793 259.599" stroke="#7F7F7F" stroke-linecap="round" stroke-linejoin="round"/>
<path d="M445.742 275.193L251.254 265.37" stroke="#7F7F7F" stroke-linecap="round" stroke-linejoin="round"/>
<path d="M251.254 278.446L445.793 290.828" stroke="#7F7F7F" stroke-linecap="round" stroke-linejoin="round"/>
<path d="M445.742 306.462L251.254 291.522" stroke="#7F7F7F" stroke-linecap="round" stroke-linejoin="round"/>
<path d="M251.254 304.597L445.793 322.097" stroke="#7F7F7F" stroke-linecap="round" stroke-linejoin="round"/>
<path d="M267.417 306.058V213.036" stroke="#7F7F7F" stroke-linecap="round" stroke-linejoin="round"/>
<path d="M251.254 213.078V304.597" stroke="#7F7F7F" stroke-linecap="round" stroke-linejoin="round"/>
<path d="M299.837 308.97V212.974" stroke="#7F7F7F" stroke-linecap="round" stroke-linejoin="round"/>
<path d="M283.632 212.974V307.478" stroke="#7F7F7F" stroke-linecap="round" stroke-linejoin="round"/>
<path d="M332.267 311.892V212.902" stroke="#7F7F7F" stroke-linecap="round" stroke-linejoin="round"/>
<path d="M316.052 212.974V310.472" stroke="#7F7F7F" stroke-linecap="round" stroke-linejoin="round"/>
<path d="M364.687 314.803V212.829" stroke="#7F7F7F" stroke-linecap="round" stroke-linejoin="round"/>
<path d="M348.472 212.86V313.363" stroke="#7F7F7F" stroke-linecap="round" stroke-linejoin="round"/>
<path d="M397.107 317.725V212.757" stroke="#7F7F7F" stroke-linecap="round" stroke-linejoin="round"/>
<path d="M380.902 212.798V316.264" stroke="#7F7F7F" stroke-linecap="round" stroke-linejoin="round"/>
<path d="M429.537 320.636V212.684" stroke="#7F7F7F" stroke-linecap="round" stroke-linejoin="round"/>
<path d="M413.322 212.726V319.186" stroke="#7F7F7F" stroke-linecap="round" stroke-linejoin="round"/>
<path d="M445.742 212.653V322.097" stroke="#7F7F7F" stroke-linecap="round" stroke-linejoin="round"/>
<path d="M251.254 213.078V304.597L445.793 322.097V212.653L251.254 213.078Z" stroke="#263238" stroke-linecap="round" stroke-linejoin="round"/>
<path d="M259.315 304.929L254.445 304.494V278.249L259.315 278.56V304.929Z" fill="#263238"/>
<path d="M264.174 305.375L259.315 304.929V265.391L264.174 265.64V305.375Z" fill="#7E8AF5"/>
<path d="M275.519 306.39L270.66 305.955V259.33L275.519 259.537V306.39Z" fill="#263238"/>
<path d="M280.389 306.825L275.519 306.39V252.813L280.389 252.989V306.825Z" fill="#7E8AF5"/>
<path d="M291.734 307.84L286.875 307.405V266.769L291.734 267.018V307.84Z" fill="#263238"/>
<path d="M296.594 308.296L291.734 307.861V260.2L296.594 260.407V308.296Z" fill="#7E8AF5"/>
<path d="M307.95 309.332L303.08 308.897V281.357L307.95 281.668V309.332Z" fill="#263238" stroke="#263238" stroke-linecap="round" stroke-linejoin="round"/>
<path d="M312.809 309.726L307.95 309.291V276.135L312.809 276.415V309.726Z" fill="#7E8AF5" stroke="#7E8AF5" stroke-linecap="round" stroke-linejoin="round"/>
<path d="M324.154 310.741L319.295 310.306V263.132L324.154 263.35V310.741Z" fill="#263238"/>
<path d="M329.024 311.177L324.154 310.741V272.281L329.024 272.54V311.177Z" fill="#7E8AF5"/>
<path d="M340.359 312.192L335.5 311.757V270.851L340.359 271.1V312.192Z" fill="#263238"/>
<path d="M345.229 312.627L340.369 312.192V264.075L345.229 264.293V312.627Z" fill="#7E8AF5"/>
<path d="M356.585 313.643L351.715 313.207V262.065L356.585 262.272V313.643Z" fill="#263238"/>
<path d="M361.444 314.078L356.585 313.642V266.095L361.444 266.323V314.078Z" fill="#7E8AF5"/>
<path d="M372.789 315.093L367.93 314.658V251.663L372.789 251.828V315.093Z" fill="#263238"/>
<path d="M377.659 315.549L372.789 315.103V244.337L377.659 244.472V315.549Z" fill="#7E8AF5"/>
<path d="M389.056 316.585L384.197 316.15V256.822L389.056 256.998V316.585Z" fill="#263238"/>
<path d="M393.864 253.538V316.989L389.056 316.585V253.383L393.864 253.538Z" fill="#7E8AF5"/>
<path d="M405.22 318.005L400.35 317.57V249.394L405.22 249.539V318.005Z" fill="#263238"/>
<path d="M410.079 318.44L405.219 318.005V250.948L410.079 251.093V318.44Z" fill="#7E8AF5"/>
<path d="M421.424 319.455L416.565 319.02V239.913L421.424 240.017V319.455Z" fill="#263238"/>
<path d="M426.294 319.89L421.424 319.455V235.655L426.294 235.738V319.89Z" fill="#7E8AF5"/>
<path d="M437.639 320.906L432.77 320.471V227.687L437.639 227.739V320.906Z" fill="#263238"/>
<path d="M442.499 321.341L437.639 320.906V223.812H442.499V321.341Z" fill="#7E8AF5"/>
<path d="M317.43 262.034L303.329 261.412C302.557 261.416 301.811 261.133 301.237 260.618C300.662 260.103 300.3 259.393 300.22 258.625V249.632C300.252 249.259 300.359 248.896 300.534 248.564C300.708 248.233 300.948 247.94 301.237 247.702C301.527 247.465 301.861 247.288 302.22 247.181C302.579 247.075 302.956 247.041 303.329 247.083L317.43 247.508C318.206 247.489 318.959 247.767 319.537 248.285C320.114 248.803 320.473 249.522 320.538 250.295V259.475C320.51 259.85 320.406 260.216 320.233 260.549C320.06 260.883 319.821 261.179 319.531 261.418C319.24 261.657 318.904 261.835 318.543 261.941C318.182 262.047 317.804 262.078 317.43 262.034Z" fill="white" stroke="#263238" stroke-linecap="round" stroke-linejoin="round"/>
<path d="M304.282 257.973C303.804 257.906 303.369 257.662 303.062 257.29C302.755 256.918 302.599 256.444 302.624 255.963V255.455H304.075V256.077C304.075 256.584 304.375 256.812 304.862 256.833C305.349 256.854 305.649 256.646 305.649 256.118C305.649 255.59 305.37 255.082 304.344 254.367C303.101 253.486 302.665 252.813 302.665 251.911C302.649 251.683 302.677 251.454 302.749 251.237C302.822 251.02 302.936 250.819 303.087 250.647C303.237 250.474 303.42 250.333 303.625 250.232C303.83 250.131 304.053 250.071 304.282 250.057V249.342H305.525V250.057C306 250.121 306.433 250.363 306.737 250.734C307.041 251.105 307.193 251.578 307.162 252.056V252.347H305.722V252.025C305.734 251.922 305.722 251.818 305.688 251.72C305.653 251.622 305.597 251.533 305.523 251.46C305.449 251.387 305.36 251.332 305.261 251.299C305.163 251.266 305.058 251.256 304.955 251.269C304.468 251.269 304.199 251.466 304.199 251.942C304.199 252.419 304.479 252.906 305.504 253.642C306.748 254.543 307.183 255.206 307.183 256.159C307.203 256.394 307.175 256.63 307.102 256.854C307.029 257.078 306.911 257.285 306.757 257.463C306.602 257.641 306.414 257.786 306.202 257.889C305.991 257.993 305.76 258.053 305.525 258.066V258.895H304.282V257.973Z" fill="#263238"/>
<path d="M315.731 255.175V249.735L312.353 249.621V255.04L309.939 254.957C311.586 256.812 312.405 257.744 314.083 259.609L318.176 255.258L315.731 255.175Z" fill="#999999" stroke="#263238" stroke-linecap="round" stroke-linejoin="round"/>
<path d="M407.406 240.949L393.294 240.628C392.497 240.629 391.731 240.325 391.153 239.777C390.574 239.229 390.228 238.481 390.186 237.685V227.894C390.221 227.104 390.567 226.361 391.15 225.827C391.733 225.292 392.504 225.011 393.294 225.045L407.406 225.169C408.204 225.168 408.972 225.474 409.55 226.024C410.129 226.574 410.474 227.325 410.514 228.122V238.069C410.503 238.463 410.414 238.852 410.251 239.212C410.089 239.571 409.855 239.895 409.566 240.163C409.276 240.431 408.936 240.639 408.565 240.774C408.194 240.909 407.8 240.969 407.406 240.949Z" fill="white" stroke="#263238" stroke-linecap="round" stroke-linejoin="round"/>
<path d="M394.237 236.857C393.743 236.77 393.301 236.502 392.995 236.105C392.69 235.708 392.546 235.211 392.589 234.712V234.121H394.03V234.805C394.018 234.913 394.031 235.021 394.067 235.123C394.103 235.225 394.161 235.318 394.238 235.394C394.314 235.471 394.407 235.529 394.509 235.565C394.611 235.601 394.72 235.614 394.827 235.603C394.935 235.619 395.046 235.609 395.149 235.575C395.253 235.54 395.347 235.482 395.424 235.404C395.5 235.326 395.558 235.231 395.591 235.127C395.624 235.023 395.632 234.913 395.615 234.805C395.615 234.163 395.335 233.696 394.309 232.94C393.066 232.008 392.631 231.282 392.631 230.308C392.58 229.823 392.719 229.336 393.018 228.95C393.317 228.564 393.754 228.308 394.237 228.236V227.48H395.49V228.267C395.982 228.347 396.425 228.61 396.73 229.005C397.034 229.4 397.176 229.895 397.127 230.391V230.64H395.687V230.288C395.704 230.181 395.695 230.073 395.663 229.97C395.631 229.867 395.576 229.774 395.502 229.696C395.428 229.618 395.337 229.557 395.236 229.52C395.136 229.483 395.028 229.469 394.921 229.479C394.817 229.466 394.711 229.476 394.612 229.51C394.513 229.544 394.422 229.6 394.348 229.674C394.274 229.748 394.218 229.838 394.184 229.937C394.151 230.037 394.14 230.142 394.154 230.246C394.154 230.837 394.434 231.282 395.459 232.059C396.713 232.992 397.148 233.717 397.148 234.743C397.19 235.235 397.041 235.724 396.733 236.11C396.424 236.495 395.98 236.748 395.49 236.815V237.706H394.237V236.857Z" fill="#263238"/>
<path d="M402.318 232.464V238.349L405.696 238.421V232.515H408.11L403.966 227.563L399.873 232.391L402.318 232.464Z" fill="#999999" stroke="#263238" stroke-linecap="round" stroke-linejoin="round"/>
<path d="M346.337 160.06C350.666 160.989 355.091 161.396 359.517 161.272C384.435 160.599 407.064 141.887 407.178 117.445C407.25 94.0185 383.679 76.1353 359.517 79.5959V120.439C355.151 133.66 350.758 146.867 346.337 160.06Z" fill="#7E8AF5" stroke="#263238" stroke-linecap="round" stroke-linejoin="round"/>
<path d="M359.517 120.439V79.5959C336.256 81.979 311.514 100.225 311.856 123.423C312.146 140.923 327.729 156.796 346.296 160.06C350.751 146.86 355.158 133.653 359.517 120.439Z" fill="#999999" stroke="#263238" stroke-linecap="round" stroke-linejoin="round"/>
<path d="M342.234 103.768C342.204 103.401 342.097 103.044 341.921 102.72C341.744 102.397 341.501 102.114 341.208 101.89C340.915 101.667 340.578 101.507 340.22 101.422C339.861 101.337 339.488 101.328 339.126 101.396C338.348 101.41 337.602 101.708 337.029 102.235C336.456 102.762 336.096 103.481 336.018 104.255V105.892C336.049 106.26 336.157 106.616 336.334 106.939C336.511 107.262 336.754 107.545 337.046 107.769C337.339 107.993 337.675 108.154 338.033 108.241C338.391 108.329 338.763 108.34 339.126 108.275C339.904 108.262 340.65 107.963 341.223 107.436C341.796 106.909 342.156 106.19 342.234 105.416" stroke="#263238" stroke-linecap="round" stroke-linejoin="round"/>
<path d="M333.583 135.266V140.561C333.606 140.807 333.678 141.045 333.796 141.262C333.914 141.479 334.075 141.67 334.268 141.823C334.462 141.976 334.685 142.088 334.923 142.153C335.162 142.217 335.411 142.232 335.655 142.198V142.198C336.166 142.201 336.66 142.016 337.042 141.677C337.425 141.339 337.669 140.871 337.727 140.364V127.029C337.752 126.684 337.901 126.359 338.147 126.115C338.392 125.871 338.718 125.725 339.064 125.703C339.234 125.667 339.411 125.668 339.581 125.705C339.751 125.742 339.912 125.815 340.052 125.919C340.192 126.023 340.308 126.155 340.393 126.307C340.478 126.459 340.53 126.628 340.546 126.801V140.271C340.567 140.517 340.639 140.757 340.756 140.975C340.873 141.194 341.034 141.386 341.227 141.54C341.421 141.694 341.645 141.807 341.884 141.872C342.123 141.937 342.373 141.953 342.618 141.918C343.13 141.921 343.625 141.734 344.008 141.394C344.391 141.053 344.634 140.583 344.69 140.074V127.143" stroke="#263238" stroke-linecap="round" stroke-linejoin="round"/>
<path d="M333.583 131.795V133.349" stroke="#263238" stroke-linecap="round" stroke-linejoin="round"/>
<path d="M344.669 125.257V114.751C344.687 114.585 344.766 114.432 344.89 114.321C345.015 114.21 345.176 114.149 345.343 114.15V114.15C345.421 114.137 345.501 114.14 345.578 114.16C345.654 114.179 345.726 114.214 345.789 114.263C345.851 114.312 345.902 114.373 345.94 114.443C345.977 114.512 346 114.589 346.006 114.668V120.885C346.025 121.263 346.192 121.619 346.471 121.875C346.75 122.131 347.119 122.267 347.498 122.253C347.937 122.285 348.372 122.145 348.71 121.863C349.048 121.58 349.264 121.178 349.311 120.74V113.249C349.311 111.28 347.436 109.819 345.115 109.985L333.137 110.855C330.817 111.031 328.993 112.731 328.993 114.668V121.921C329.014 122.297 329.183 122.649 329.462 122.901C329.742 123.153 330.109 123.285 330.485 123.268C330.922 123.303 331.355 123.167 331.693 122.889C332.032 122.61 332.248 122.211 332.298 121.776V115.559C332.316 115.392 332.394 115.238 332.518 115.125C332.643 115.013 332.804 114.95 332.972 114.948V114.948C333.049 114.936 333.129 114.941 333.205 114.961C333.281 114.981 333.352 115.016 333.414 115.065C333.476 115.113 333.528 115.174 333.566 115.243C333.604 115.312 333.627 115.388 333.635 115.466V130.22" stroke="#263238" stroke-linecap="round" stroke-linejoin="round"/>
<path d="M382.767 101.789C382.984 103.095 383.306 104.981 383.306 104.981L375.908 105.53C375.908 105.53 376.592 101.385 376.643 101.074C376.767 100.335 377.119 99.6534 377.651 99.1254C378.182 98.5974 378.867 98.2498 379.607 98.1318C380.318 98.1112 381.012 98.3518 381.558 98.808C382.104 99.2642 382.464 99.9046 382.57 100.608" stroke="#263238" stroke-linecap="round" stroke-linejoin="round"/>
<path d="M389.16 118.222V110.482C389.16 108.41 387.274 106.928 384.964 107.094" stroke="#263238" stroke-linecap="round" stroke-linejoin="round"/>
<path d="M384.518 130.604V128.013L386.88 127.879C385.937 121.548 385.461 118.377 384.518 112.068C384.531 111.899 384.606 111.741 384.728 111.624C384.851 111.507 385.012 111.44 385.181 111.436C385.261 111.424 385.342 111.429 385.419 111.45C385.496 111.472 385.569 111.509 385.631 111.559C385.693 111.61 385.744 111.673 385.781 111.744C385.818 111.816 385.839 111.894 385.844 111.974V118.409C385.855 118.794 386.018 119.16 386.298 119.426C386.577 119.692 386.95 119.836 387.336 119.828" stroke="#263238" stroke-linecap="round" stroke-linejoin="round"/>
<path d="M384.518 133.95V132.158" stroke="#263238" stroke-linecap="round" stroke-linejoin="round"/>
<path d="M372.613 126.729C372.499 127.495 372.447 127.879 372.333 128.645L374.696 128.511V138.644C374.714 138.894 374.782 139.139 374.897 139.362C375.012 139.585 375.172 139.783 375.365 139.943C375.559 140.103 375.783 140.221 376.024 140.292C376.266 140.363 376.518 140.383 376.768 140.353C377.288 140.355 377.79 140.161 378.174 139.81C378.558 139.459 378.796 138.976 378.84 138.457V128.283L380.374 128.2V138.374C380.391 138.625 380.46 138.869 380.575 139.093C380.69 139.316 380.849 139.513 381.043 139.673C381.237 139.833 381.461 139.952 381.702 140.023C381.943 140.093 382.196 140.114 382.446 140.084C382.968 140.086 383.471 139.89 383.855 139.537C384.24 139.183 384.476 138.698 384.518 138.178V135.753" stroke="#263238" stroke-linecap="round" stroke-linejoin="round"/>
<path d="M381.379 107.353L374.25 107.871C373.198 107.908 372.195 108.329 371.431 109.054C370.668 109.779 370.196 110.759 370.106 111.809V119.362C370.119 119.736 370.276 120.09 370.545 120.351C370.813 120.611 371.172 120.758 371.546 120.761C371.992 120.795 372.433 120.652 372.775 120.363C373.116 120.074 373.33 119.662 373.369 119.217V112.793C373.384 112.625 373.46 112.468 373.582 112.352C373.704 112.236 373.864 112.168 374.033 112.161V112.161C374.112 112.149 374.193 112.154 374.27 112.176C374.348 112.197 374.42 112.234 374.482 112.285C374.545 112.335 374.596 112.398 374.633 112.47C374.669 112.541 374.691 112.619 374.696 112.7L373.09 123.579" stroke="#263238" stroke-linecap="round" stroke-linejoin="round"/>
<path d="M424.553 113.715L419.29 114.057C418.836 114.119 418.374 114.086 417.934 113.961C417.493 113.835 417.084 113.62 416.731 113.327C416.378 113.035 416.09 112.673 415.885 112.263C415.68 111.854 415.562 111.406 415.539 110.949V106.255C415.605 105.292 416.024 104.386 416.716 103.713C417.408 103.04 418.325 102.646 419.29 102.608L424.553 102.214C425.007 102.15 425.468 102.182 425.909 102.307C426.35 102.432 426.759 102.648 427.111 102.94C427.464 103.233 427.751 103.596 427.954 104.006C428.158 104.417 428.273 104.865 428.293 105.322V110.099C428.23 111.058 427.812 111.96 427.12 112.628C426.429 113.296 425.514 113.684 424.553 113.715Z" fill="#999999" stroke="#263238" stroke-linecap="round" stroke-linejoin="round"/>
<path d="M437.266 110.172L434.054 110.389V108.99C435.287 106.265 435.899 104.908 437.163 102.173L438.997 102.038V108.659H439.784V110.058H438.997V111.84L437.308 111.954L437.266 110.172ZM437.266 108.773V104.96C436.614 106.535 436.282 107.322 435.619 108.887L437.266 108.773Z" fill="#263238"/>
<path d="M440.53 109.363V108.586L442.115 108.483V109.363C442.115 110.068 442.457 110.296 442.996 110.254C443.535 110.213 443.866 109.944 443.866 109.218V107.011C443.866 106.307 443.524 106.058 442.996 106.1C442.467 106.141 442.115 106.421 442.115 107.136V107.219L440.53 107.333C440.654 105.126 440.716 104.027 440.83 101.831L445.265 101.499V102.908L442.333 103.116C442.281 104.058 442.25 104.535 442.198 105.478C442.354 105.233 442.568 105.03 442.821 104.888C443.074 104.745 443.358 104.666 443.649 104.659C444.882 104.577 445.514 105.333 445.514 106.783V109.011C445.545 109.354 445.502 109.7 445.389 110.026C445.276 110.352 445.095 110.649 444.858 110.899C444.62 111.149 444.332 111.346 444.013 111.476C443.694 111.606 443.351 111.666 443.006 111.653C442.683 111.72 442.349 111.709 442.031 111.621C441.713 111.532 441.421 111.369 441.179 111.145C440.937 110.922 440.751 110.643 440.638 110.333C440.526 110.023 440.488 109.691 440.53 109.363Z" fill="#263238"/>
<path d="M446.602 105.374V102.908C446.584 102.687 446.613 102.464 446.688 102.255C446.762 102.045 446.88 101.854 447.034 101.694C447.187 101.533 447.373 101.407 447.579 101.324C447.785 101.24 448.006 101.201 448.228 101.209C448.436 101.163 448.653 101.167 448.859 101.222C449.065 101.276 449.255 101.379 449.413 101.522C449.572 101.665 449.693 101.844 449.768 102.044C449.843 102.243 449.87 102.458 449.845 102.67V105.146C449.864 105.367 449.836 105.59 449.763 105.799C449.689 106.008 449.572 106.2 449.42 106.36C449.267 106.521 449.081 106.647 448.876 106.731C448.671 106.815 448.45 106.854 448.228 106.845C448.019 106.891 447.801 106.887 447.594 106.832C447.386 106.777 447.195 106.673 447.036 106.529C446.877 106.385 446.754 106.205 446.679 106.004C446.603 105.803 446.577 105.587 446.602 105.374ZM448.777 105.291V102.68C448.777 102.245 448.56 102.079 448.228 102.1C447.897 102.121 447.669 102.328 447.669 102.763V105.374C447.669 105.809 447.876 105.975 448.228 105.954C448.581 105.934 448.777 105.726 448.777 105.291ZM452.103 101.064L453.139 100.991C451.482 105.074 450.653 107.115 448.995 111.176L447.959 111.249C449.617 107.187 450.446 105.157 452.103 101.074V101.064ZM451.295 109.581V107.105C451.276 106.884 451.304 106.662 451.377 106.453C451.45 106.244 451.568 106.054 451.721 105.894C451.874 105.734 452.059 105.608 452.264 105.526C452.47 105.444 452.69 105.406 452.912 105.416C453.121 105.367 453.34 105.37 453.548 105.424C453.757 105.478 453.949 105.582 454.109 105.727C454.269 105.871 454.391 106.052 454.466 106.254C454.541 106.456 454.565 106.673 454.538 106.887V109.363C454.556 109.584 454.527 109.806 454.452 110.015C454.377 110.224 454.259 110.415 454.106 110.574C453.952 110.734 453.766 110.859 453.56 110.942C453.354 111.024 453.133 111.062 452.912 111.052C452.702 111.099 452.485 111.094 452.278 111.039C452.071 110.984 451.88 110.88 451.722 110.736C451.563 110.592 451.442 110.411 451.367 110.21C451.293 110.009 451.268 109.793 451.295 109.581ZM453.471 109.508V106.887C453.471 106.452 453.253 106.286 452.912 106.307C452.57 106.327 452.362 106.524 452.362 106.97V109.581C452.362 110.026 452.57 110.192 452.912 110.171C453.253 110.151 453.471 109.954 453.471 109.508Z" fill="#263238"/>
<path d="M424.553 130.552L419.29 130.821C418.832 130.874 418.368 130.832 417.926 130.699C417.485 130.565 417.076 130.342 416.724 130.044C416.373 129.746 416.086 129.379 415.882 128.965C415.678 128.552 415.561 128.101 415.539 127.64V122.905C415.603 121.947 416.024 121.048 416.718 120.384C417.412 119.721 418.33 119.341 419.29 119.32L424.553 118.999C425.01 118.943 425.474 118.982 425.916 119.114C426.357 119.246 426.766 119.468 427.117 119.765C427.469 120.063 427.755 120.431 427.957 120.844C428.16 121.258 428.274 121.709 428.293 122.17V126.977C428.231 127.933 427.812 128.831 427.12 129.493C426.427 130.155 425.511 130.533 424.553 130.552Z" fill="#7E8AF5" stroke="#263238" stroke-linecap="round" stroke-linejoin="round"/>
<path d="M434.407 126.718V125.941L436.002 125.858V126.729C436.002 127.433 436.334 127.661 436.873 127.64C437.411 127.62 437.743 127.34 437.743 126.604V124.408C437.743 123.714 437.411 123.465 436.873 123.496C436.334 123.527 436.002 123.807 436.002 124.532V124.615L434.407 124.698L434.717 119.227L439.152 118.958V120.367L436.22 120.533C436.158 121.476 436.137 121.942 436.075 122.874C436.231 122.631 436.446 122.431 436.699 122.292C436.952 122.153 437.236 122.079 437.525 122.076C438.769 122.004 439.39 122.771 439.39 124.211V126.428C439.424 126.77 439.383 127.114 439.27 127.438C439.158 127.762 438.975 128.058 438.737 128.304C438.498 128.551 438.209 128.742 437.889 128.866C437.568 128.989 437.225 129.041 436.883 129.018C436.559 129.086 436.224 129.075 435.905 128.986C435.586 128.897 435.293 128.733 435.051 128.508C434.808 128.283 434.623 128.003 434.511 127.691C434.399 127.38 434.363 127.046 434.407 126.718Z" fill="#263238"/>
<path d="M440.53 126.386V125.62L442.115 125.527V126.418C442.115 127.112 442.457 127.35 442.996 127.319C443.535 127.288 443.866 127.029 443.866 126.283V124.076C443.866 123.371 443.524 123.123 442.996 123.154C442.467 123.185 442.115 123.465 442.115 124.19V124.273L440.53 124.366C440.654 122.159 440.716 121.061 440.83 118.864L445.265 118.595V120.004L442.333 120.17C442.281 121.113 442.25 121.589 442.198 122.532C442.354 122.289 442.568 122.088 442.822 121.949C443.075 121.809 443.359 121.736 443.649 121.734C444.882 121.662 445.514 122.429 445.514 123.879V126.107C445.547 126.449 445.506 126.795 445.393 127.119C445.281 127.444 445.099 127.741 444.861 127.989C444.622 128.237 444.333 128.431 444.013 128.557C443.693 128.682 443.35 128.737 443.006 128.718C442.679 128.786 442.341 128.775 442.019 128.685C441.698 128.594 441.403 128.428 441.159 128.199C440.916 127.97 440.732 127.685 440.622 127.37C440.513 127.054 440.481 126.717 440.53 126.386Z" fill="#263238"/>
<path d="M446.602 122.512V120.046C446.582 119.825 446.61 119.602 446.684 119.393C446.758 119.184 446.876 118.993 447.031 118.834C447.185 118.675 447.372 118.551 447.579 118.47C447.785 118.389 448.007 118.354 448.228 118.367C448.438 118.323 448.656 118.329 448.862 118.385C449.069 118.442 449.26 118.547 449.418 118.692C449.576 118.837 449.697 119.017 449.771 119.219C449.846 119.42 449.871 119.636 449.845 119.849V122.325C449.864 122.545 449.837 122.766 449.763 122.974C449.689 123.182 449.572 123.371 449.419 123.529C449.265 123.688 449.079 123.811 448.874 123.891C448.669 123.971 448.448 124.006 448.228 123.993C448.018 124.037 447.8 124.031 447.593 123.974C447.386 123.918 447.195 123.813 447.036 123.668C446.877 123.524 446.755 123.343 446.68 123.142C446.604 122.941 446.577 122.725 446.602 122.512ZM448.777 122.46V119.849C448.777 119.403 448.56 119.237 448.228 119.258C447.897 119.279 447.669 119.476 447.669 119.911V122.522C447.669 122.957 447.876 123.133 448.228 123.113C448.581 123.092 448.777 122.895 448.777 122.46ZM452.103 118.315L453.139 118.253C451.482 122.315 450.653 124.345 448.995 128.386L447.959 128.438C449.617 124.366 450.446 122.335 452.103 118.274V118.315ZM451.295 126.822V124.345C451.275 124.126 451.303 123.905 451.377 123.697C451.45 123.489 451.568 123.299 451.721 123.141C451.875 122.983 452.06 122.859 452.266 122.779C452.471 122.699 452.691 122.665 452.912 122.677C453.123 122.633 453.341 122.64 453.55 122.697C453.758 122.754 453.949 122.859 454.108 123.005C454.267 123.151 454.389 123.333 454.464 123.535C454.539 123.738 454.564 123.955 454.538 124.169V126.656C454.558 126.877 454.53 127.099 454.456 127.307C454.382 127.516 454.263 127.706 454.109 127.865C453.954 128.023 453.767 128.146 453.561 128.226C453.354 128.305 453.132 128.339 452.912 128.324C452.696 128.369 452.473 128.361 452.262 128.3C452.05 128.24 451.857 128.129 451.698 127.977C451.539 127.825 451.419 127.637 451.349 127.428C451.279 127.22 451.26 126.997 451.295 126.78V126.822ZM453.471 126.822V124.2C453.471 123.765 453.253 123.589 452.912 123.61C452.57 123.631 452.362 123.827 452.362 124.263V126.884C452.362 127.319 452.57 127.495 452.912 127.475C453.253 127.454 453.471 127.174 453.471 126.739V126.822Z" fill="#263238"/>
<path d="M170.437 184.212L105.598 185.714V79.254L170.437 71.7837V184.212Z" fill="#7E8AF5"/>
<path opacity="0.8" d="M170.437 184.212L105.598 185.714V79.254L170.437 71.7837V184.212Z" fill="white"/>
<path d="M235.329 182.72L170.437 184.212V71.7838L235.287 64.3135L235.329 182.72Z" fill="#7E8AF5"/>
<path opacity="0.6" d="M235.329 182.72L170.437 184.212V71.7838L235.287 64.3135L235.329 182.72Z" fill="white"/>
<path d="M300.179 181.228L235.329 182.72V64.3134L300.179 56.843V181.228Z" fill="#7E8AF5"/>
<path opacity="0.4" d="M300.179 181.228L235.329 182.72V64.3134L300.179 56.843V181.228Z" fill="white"/>
<path d="M300.179 56.843L105.639 79.254" stroke="#7F7F7F" stroke-linecap="round" stroke-linejoin="round"/>
<path d="M105.639 94.4641L300.179 74.6123" stroke="#7F7F7F" stroke-linecap="round" stroke-linejoin="round"/>
<path d="M300.179 92.3816L105.639 109.674" stroke="#7F7F7F" stroke-linecap="round" stroke-linejoin="round"/>
<path d="M105.639 124.905L300.179 110.182" stroke="#7F7F7F" stroke-linecap="round" stroke-linejoin="round"/>
<path d="M300.179 127.92L105.639 140.084" stroke="#7F7F7F" stroke-linecap="round" stroke-linejoin="round"/>
<path d="M105.639 155.294L300.179 145.689" stroke="#7F7F7F" stroke-linecap="round" stroke-linejoin="round"/>
<path d="M300.179 163.458L105.639 170.494" stroke="#7F7F7F" stroke-linecap="round" stroke-linejoin="round"/>
<path d="M105.639 185.714L300.179 181.228" stroke="#7F7F7F" stroke-linecap="round" stroke-linejoin="round"/>
<path d="M121.844 185.341V77.3892" stroke="#7F7F7F" stroke-linecap="round" stroke-linejoin="round"/>
<path d="M105.639 79.2542V185.714" stroke="#7F7F7F" stroke-linecap="round" stroke-linejoin="round"/>
<path d="M154.274 184.585V73.6487" stroke="#7F7F7F" stroke-linecap="round" stroke-linejoin="round"/>
<path d="M138.059 75.5137V184.999" stroke="#7F7F7F" stroke-linecap="round" stroke-linejoin="round"/>
<path d="M186.694 183.839V69.9187" stroke="#7F7F7F" stroke-linecap="round" stroke-linejoin="round"/>
<path d="M170.437 71.7837V184.212" stroke="#7F7F7F" stroke-linecap="round" stroke-linejoin="round"/>
<path d="M219.134 183.093V66.1785" stroke="#7F7F7F" stroke-linecap="round" stroke-linejoin="round"/>
<path d="M202.909 68.0537V183.466" stroke="#7F7F7F" stroke-linecap="round" stroke-linejoin="round"/>
<path d="M251.544 182.347V62.4485" stroke="#7F7F7F" stroke-linecap="round" stroke-linejoin="round"/>
<path d="M235.329 64.3135V182.72" stroke="#7F7F7F" stroke-linecap="round" stroke-linejoin="round"/>
<path d="M283.964 181.601V58.7185" stroke="#7F7F7F" stroke-linecap="round" stroke-linejoin="round"/>
<path d="M267.749 60.5833V181.974" stroke="#7F7F7F" stroke-linecap="round" stroke-linejoin="round"/>
<path d="M300.179 56.843V181.228" stroke="#7F7F7F" stroke-linecap="round" stroke-linejoin="round"/>
<path d="M105.639 79.254V185.714L300.179 181.228V56.8948L105.639 79.254Z" stroke="#263238" stroke-linecap="round" stroke-linejoin="round"/>
<path d="M105.639 170.494H106.8" stroke="#263238" stroke-linecap="round" stroke-linejoin="round"/>
<path d="M108.779 170.39L119.699 169.996" stroke="#263238" stroke-linecap="round" stroke-linejoin="round" stroke-dasharray="1.71 1.71"/>
<path d="M120.704 169.955H121.854L122.673 169.147" stroke="#263238" stroke-linecap="round" stroke-linejoin="round"/>
<path d="M124.289 167.499C129.148 162.682 131.542 160.247 136.432 155.346" stroke="#263238" stroke-linecap="round" stroke-linejoin="round" stroke-dasharray="1.98 1.98"/>
<path d="M137.282 154.527L138.1 153.698C138.432 153.989 138.598 154.144 138.919 154.444" stroke="#263238" stroke-linecap="round" stroke-linejoin="round"/>
<path d="M140.173 155.625L144.7 159.77" stroke="#263238" stroke-linecap="round" stroke-linejoin="round" stroke-dasharray="1.58 1.58"/>
<path d="M145.343 160.402L146.161 161.169C146.317 160.734 146.389 160.516 146.534 160.081" stroke="#263238" stroke-linecap="round" stroke-linejoin="round"/>
<path d="M147.197 158.06C149.746 150.518 151.021 146.725 153.57 139.1" stroke="#263238" stroke-linecap="round" stroke-linejoin="round" stroke-dasharray="1.83 1.83"/>
<path d="M153.86 138.146C154.015 137.701 154.087 137.483 154.233 137.048L155.383 136.976" stroke="#263238" stroke-linecap="round" stroke-linejoin="round"/>
<path d="M157.362 136.851L160.252 136.675" stroke="#263238" stroke-linecap="round" stroke-linejoin="round" stroke-dasharray="1.67 1.67"/>
<path d="M161.216 136.613L162.376 136.541L162.894 135.504" stroke="#263238" stroke-linecap="round" stroke-linejoin="round"/>
<path d="M163.91 133.432L169.463 122.035" stroke="#263238" stroke-linecap="round" stroke-linejoin="round" stroke-dasharray="1.95 1.95"/>
<path d="M169.961 121.03L170.479 119.994L171.639 119.901" stroke="#263238" stroke-linecap="round" stroke-linejoin="round"/>
<path d="M173.629 119.724L184.539 118.896" stroke="#263238" stroke-linecap="round" stroke-linejoin="round" stroke-dasharray="1.71 1.71"/>
<path d="M185.533 118.833L186.694 118.74L187.512 117.859" stroke="#263238" stroke-linecap="round" stroke-linejoin="round"/>
<path d="M188.808 116.461L193.335 111.539" stroke="#263238" stroke-linecap="round" stroke-linejoin="round" stroke-dasharray="1.58 1.58"/>
<path d="M193.978 110.835L194.796 109.933L195.957 109.84" stroke="#263238" stroke-linecap="round" stroke-linejoin="round"/>
<path d="M198.267 109.653L211.011 108.617C213.602 105.747 214.897 104.318 217.487 101.427" stroke="#263238" stroke-linecap="round" stroke-linejoin="round" stroke-dasharray="1.99 1.99"/>
<path d="M218.295 100.505C218.627 100.132 218.792 99.9555 219.114 99.5825L219.932 100.36" stroke="#263238" stroke-linecap="round" stroke-linejoin="round"/>
<path d="M221.559 101.883C226.408 106.483 228.812 108.804 233.702 113.487" stroke="#263238" stroke-linecap="round" stroke-linejoin="round" stroke-dasharray="1.98 1.98"/>
<path d="M234.51 114.275L235.329 115.062C235.66 114.699 235.816 114.513 236.147 114.14" stroke="#263238" stroke-linecap="round" stroke-linejoin="round"/>
<path d="M237.442 112.689C239.256 110.617 240.157 109.643 241.97 107.592" stroke="#263238" stroke-linecap="round" stroke-linejoin="round" stroke-dasharray="1.58 1.58"/>
<path d="M242.613 106.866L243.431 105.934L244.592 105.841" stroke="#263238" stroke-linecap="round" stroke-linejoin="round"/>
<path d="M246.819 105.654L259.646 104.618C262.889 100.898 264.506 99.0333 267.749 95.293L273.582 94.7749" stroke="#263238" stroke-linecap="round" stroke-linejoin="round" stroke-dasharray="1.93 1.93"/>
<path d="M274.701 94.6505L275.861 94.5469L276.379 93.3865" stroke="#263238" stroke-linecap="round" stroke-linejoin="round"/>
<path d="M277.384 91.1176C279.602 86.1236 280.721 83.6162 282.938 78.5911" stroke="#263238" stroke-linecap="round" stroke-linejoin="round" stroke-dasharray="1.95 1.95"/>
<path d="M283.446 77.4408L283.964 76.27" stroke="#263238" stroke-linecap="round" stroke-linejoin="round"/>
<path d="M105.639 155.294L121.844 154.496C128.33 151.088 131.573 149.368 138.059 145.876L146.161 145.42C149.404 138.944 151.031 135.681 154.274 129.122C157.517 125.724 159.133 124.024 162.376 120.584C165.619 113.953 167.236 110.617 170.479 103.903C176.965 106.545 180.208 107.882 186.694 110.607C189.937 113.591 191.553 115.093 194.796 118.129C201.282 111.083 204.525 107.519 211.011 100.308C214.254 93.3763 215.871 89.9468 219.114 82.8805C225.6 88.9003 228.843 91.9568 235.329 98.1424C238.572 104.628 240.188 107.882 243.431 114.451L259.646 113.218C262.889 109.529 264.506 107.675 267.749 103.893C270.992 93.2209 272.618 87.8538 275.861 77.0576C279.094 69.7426 280.721 66.0645 283.964 58.677" stroke="#263238" stroke-linecap="round" stroke-linejoin="round"/>
<path d="M136.722 198.313C136.389 198.429 136.039 198.485 135.686 198.479C135.373 198.518 135.054 198.485 134.755 198.382C134.457 198.279 134.185 198.109 133.962 197.885C133.739 197.661 133.571 197.389 133.469 197.089C133.367 196.79 133.335 196.472 133.376 196.158V191.216C133.34 190.9 133.374 190.58 133.476 190.279C133.578 189.978 133.745 189.703 133.966 189.474C134.187 189.245 134.456 189.068 134.753 188.956C135.051 188.843 135.369 188.798 135.686 188.823C136 188.782 136.318 188.814 136.617 188.916C136.917 189.018 137.189 189.186 137.413 189.409C137.637 189.632 137.807 189.904 137.91 190.202C138.013 190.501 138.046 190.819 138.007 191.133V196.065C138.027 196.611 137.878 197.15 137.582 197.609C137.686 197.795 137.872 197.826 138.152 197.816H138.38V199.153H137.986C137.71 199.186 137.432 199.119 137.2 198.965C136.968 198.812 136.799 198.581 136.722 198.313ZM136.505 196.241V191.133C136.505 190.46 136.194 190.211 135.707 190.221C135.22 190.232 134.92 190.491 134.92 191.164V196.262C134.92 196.935 135.23 197.184 135.707 197.174C136.184 197.163 136.505 196.884 136.505 196.21V196.241Z" fill="#263238"/>
<path d="M141.198 191.112H139.603V190.076C140.898 190.076 141.354 189.776 141.675 188.854H142.711V198.261H141.178L141.198 191.112Z" fill="#263238"/>
<path d="M201.137 197.547C200.805 197.669 200.455 197.732 200.101 197.733C199.778 197.76 199.453 197.713 199.151 197.597C198.848 197.481 198.576 197.298 198.354 197.062C198.132 196.826 197.966 196.543 197.868 196.234C197.771 195.925 197.744 195.598 197.791 195.277V190.097C197.746 189.773 197.773 189.443 197.871 189.131C197.968 188.819 198.133 188.533 198.353 188.291C198.574 188.05 198.845 187.86 199.147 187.735C199.449 187.61 199.775 187.554 200.101 187.569C201.603 187.569 202.422 188.429 202.422 190.014V195.195C202.45 195.767 202.302 196.335 201.997 196.821C202.101 197.018 202.287 197.049 202.567 197.039H202.805V198.469H202.401C202.114 198.498 201.826 198.42 201.593 198.25C201.359 198.08 201.197 197.829 201.137 197.547ZM200.92 195.34V189.952C200.92 189.247 200.609 188.978 200.122 188.988C199.635 188.999 199.334 189.278 199.334 190.024V195.36C199.334 196.065 199.645 196.324 200.122 196.324C200.598 196.324 200.92 196.044 200.92 195.36V195.34Z" fill="#263238"/>
<path d="M203.448 196.479C203.435 195.816 203.565 195.159 203.83 194.551C204.095 193.943 204.487 193.399 204.981 192.957C206.142 191.693 206.473 190.884 206.473 190.004C206.473 189.123 206.173 188.874 205.686 188.885C205.199 188.895 204.888 189.175 204.888 189.921V190.957H203.448V189.993C203.448 188.408 204.225 187.486 205.727 187.465C207.229 187.444 208.006 188.325 208.006 189.91C208.006 191.092 207.53 192.148 206.11 193.703C205.199 194.739 204.96 195.205 204.96 195.889V196.106H207.861V197.526L203.448 197.578V196.479Z" fill="#263238"/>
<path d="M266.029 196.78C265.699 196.91 265.347 196.977 264.992 196.977C263.49 196.977 262.672 196.055 262.672 194.397V188.947C262.672 187.289 263.49 186.326 264.992 186.294C266.495 186.263 267.313 187.206 267.313 188.864V194.324C267.336 194.924 267.185 195.518 266.878 196.034C266.992 196.241 267.168 196.272 267.448 196.262H267.686V197.743H267.282C266.991 197.769 266.7 197.684 266.468 197.505C266.236 197.327 266.079 197.068 266.029 196.78ZM265.801 194.459V188.791C265.801 188.045 265.5 187.755 265.013 187.755C264.526 187.755 264.226 188.056 264.226 188.791V194.459C264.226 195.195 264.526 195.495 265.013 195.495C265.5 195.495 265.759 195.195 265.759 194.459H265.801Z" fill="#263238"/>
<path d="M268.256 194.324V193.475H269.696V194.397C269.696 195.132 269.997 195.433 270.484 195.433C270.971 195.433 271.282 195.163 271.282 194.241V193.392C271.282 192.428 270.971 192.076 270.246 192.086H269.738V190.594H270.287C270.857 190.594 271.209 190.314 271.209 189.475V188.719C271.209 187.973 270.888 187.683 270.442 187.683C269.997 187.683 269.707 187.983 269.707 188.667V189.351H268.267V188.802C268.267 187.134 269.044 186.191 270.494 186.17C271.945 186.149 272.732 187.03 272.732 188.698V189.144C272.732 190.263 272.401 190.957 271.696 191.268C272.515 191.579 272.815 192.304 272.815 193.392V194.324C272.815 195.992 272.038 196.914 270.536 196.925C269.033 196.935 268.256 196.013 268.256 194.324Z" fill="#263238"/>
<path d="M164.345 137.887C164.345 137.887 148.917 124.636 159.164 115.881C159.164 115.881 164.107 100.339 180.342 102.525C196.578 104.711 188.445 95.521 188.445 95.521C188.445 95.521 197.646 100.339 193.418 104.059C194.689 104.118 195.951 103.822 197.062 103.204C198.173 102.585 199.089 101.668 199.707 100.556C199.707 100.556 202.536 105.592 197.252 107.809C197.252 107.809 204.163 109.56 202.318 113.508C202.318 113.508 197.407 110.897 196.102 120.761C194.796 130.624 179.172 129.184 179.172 129.184L164.345 137.887Z" fill="#263238" stroke="#263238" stroke-linecap="round" stroke-linejoin="round"/>
<path d="M165.329 141.172C165.329 140.664 161.662 151.844 168.635 150.901C171.94 150.455 167.236 141.172 167.236 141.172H165.329Z" fill="#263238" stroke="#263238" stroke-linecap="round" stroke-linejoin="round"/>
<path d="M199.345 110.959C199.345 110.959 195.2 110.296 194.382 115.103" stroke="#7F7F7F" stroke-linecap="round" stroke-linejoin="round"/>
<path d="M189.533 109.809C187.896 111.943 188.445 115.114 188.445 115.114" stroke="#7F7F7F" stroke-linecap="round" stroke-linejoin="round"/>
<path d="M198.174 104.059C196.657 106.132 194.455 107.6 191.957 108.203" stroke="#7F7F7F" stroke-linecap="round" stroke-linejoin="round"/>
<path d="M179.141 109.591C179.141 109.591 185.792 108.276 184.912 115.114" stroke="#7F7F7F" stroke-linecap="round" stroke-linejoin="round"/>
<path d="M211.757 274.892C211.757 274.892 217.28 303.717 211.757 331.961C206.235 360.205 202.826 450.906 202.826 450.906H168.458V270.385L210.027 268.924L211.757 274.892Z" fill="#999999"/>
<path opacity="0.2" d="M191.336 313.57C191.336 313.57 189.844 323.538 197.293 321.02C204.743 318.502 209.913 319.372 203.697 325.009C197.48 330.645 188.859 339.183 187.481 370.059C186.103 400.935 183.969 450.875 183.969 450.875H168.997L165.889 336.199L179.493 316.171L185.824 313.539L191.336 313.57Z" fill="black"/>
<path d="M211.757 274.892C211.757 274.892 217.28 303.717 211.757 331.961C206.235 360.205 202.826 450.906 202.826 450.906H168.458V270.385L210.027 268.924L211.757 274.892Z" stroke="#263238" stroke-linecap="round" stroke-linejoin="round"/>
<path d="M207.613 321.123C207.613 321.123 199.915 319.486 191.336 329.008" stroke="#263238" stroke-linecap="round" stroke-linejoin="round"/>
<path d="M196.226 278.135C196.226 278.135 195.874 310.255 191.729 322.439C187.585 334.624 181.368 391.796 182.063 450.917H146.534C146.534 450.917 144.462 344.125 143.063 328.355C141.665 312.586 134.433 315.228 144.441 270.396H197.687L196.226 278.135Z" fill="#999999" stroke="#263238" stroke-linecap="round" stroke-linejoin="round"/>
<path d="M189.491 285.015C192.227 284.828 194.724 284.611 196.993 284.383L197.293 289.677C194.931 289.916 192.32 290.144 189.491 290.33V285.015Z" fill="#263238"/>
<path d="M200.857 283.948C205.147 283.44 208.255 282.912 209.934 282.611L210.649 287.843C208.701 288.196 205.365 288.745 200.857 289.284V283.948Z" fill="#263238"/>
<path d="M142.545 289.17L143.353 283.989C149.176 284.642 154.751 285.077 160.066 285.326L159.714 290.579C154.295 290.289 148.555 289.853 142.545 289.17Z" fill="#263238"/>
<path d="M164.107 285.502C172.209 285.761 179.524 285.616 185.865 285.274V290.579C181.845 290.786 177.431 290.921 172.686 290.921C169.888 290.921 166.966 290.869 163.941 290.765L164.107 285.502Z" fill="#263238"/>
<path d="M262.848 228.868L271.593 223.594C271.593 223.594 275.271 213.958 279.881 211.337C284.492 208.716 289.082 206.302 290.243 206.954C291.403 207.607 290.015 209.804 287.02 211.99C285.155 213.358 290.584 211.037 297.547 207.845C301.692 205.918 306.478 203.235 307.214 204.395C309.918 208.612 296.086 213.979 296.086 213.979C296.086 213.979 300.832 213.751 298.987 217.253C298.987 217.253 299.681 220.538 298.065 221.636L296.231 223.874C295.477 226.084 294.022 227.986 292.087 229.293C287.915 231.616 283.271 232.966 278.503 233.24L267.003 241.291L262.848 228.868Z" fill="white" stroke="#263238" stroke-linecap="round" stroke-linejoin="round"/>
<path d="M293.227 214.404C293.227 214.404 283.446 216.373 283.964 218.548C284.482 220.724 287.518 219.191 287.518 219.191C287.518 219.191 284.285 220.289 284.637 221.491C284.989 222.693 287.279 222.672 287.279 222.672C287.279 222.672 284.285 223.356 284.637 224.744C284.989 226.133 286.979 226.609 288.626 226.392C290.274 226.174 291.538 225.615 292.004 226.444C292.47 227.273 287.507 225.946 284.637 227.977" stroke="#263238" stroke-linecap="round" stroke-linejoin="round"/>
<path d="M285.445 212.757C285.293 213.971 284.784 215.114 283.985 216.041C282.793 217.139 283.829 220.859 279.457 224.91" stroke="#263238" stroke-linecap="round" stroke-linejoin="round"/>
<path d="M295.382 218.176L289.942 218.828" stroke="#263238" stroke-linecap="round" stroke-linejoin="round"/>
<path d="M294.947 222.279L289.942 222.693" stroke="#263238" stroke-linecap="round" stroke-linejoin="round"/>
<path d="M242.136 234.432C249.731 232.36 258.911 226.692 263.324 223.76C263.579 223.585 263.873 223.477 264.181 223.446C264.488 223.415 264.798 223.462 265.082 223.583C265.366 223.704 265.616 223.895 265.806 224.138C265.997 224.38 266.124 224.668 266.174 224.972C266.671 228.982 268.246 235.81 273.551 237.665C281.146 240.338 273.893 244.462 269.065 245.85C264.236 247.238 229.692 263.982 219.331 261.692C208.97 259.402 205.52 257.744 200.681 247.736C195.843 237.727 198.257 189.444 198.257 189.444L212.762 185.828C212.762 185.828 216.555 189.227 218.399 211.99C220.243 234.753 223.279 237.602 223.279 237.602C223.279 237.602 232.49 230.795 230.076 237.375C230.055 237.375 239.525 235.137 242.136 234.432Z" fill="#7E8AF5" stroke="#263238" stroke-linecap="round" stroke-linejoin="round"/>
<path d="M225.216 241.281C225.216 241.281 221.476 253.776 218.658 252.823C215.84 251.87 216.586 248.461 221.248 241.281" stroke="#263238" stroke-linecap="round" stroke-linejoin="round"/>
<path d="M212.793 185.828C206.069 179.435 196.216 173.022 175.856 171.706C155.497 170.39 127.159 175.322 126.123 183.207C125.087 191.092 136.826 233.354 136.826 271.214C136.826 276.798 137.52 283.036 149.259 283.036C160.998 283.036 214.855 286.973 215.57 274.167C216.285 261.36 212.814 248.554 213.85 230.163C214.886 211.772 217.974 190.76 212.793 185.828Z" fill="#7E8AF5" stroke="#263238" stroke-linecap="round" stroke-linejoin="round"/>
<path d="M131.842 177.747C131.842 177.747 123.388 180.264 121.543 192.967C119.699 205.67 111.649 234.339 114.643 235.002C117.637 235.665 107.504 240.69 111.182 248.14C114.86 255.589 131.438 279.658 141.105 277.037C150.772 274.415 150.306 259.516 147.322 256.895C144.338 254.274 134.174 248.772 134.174 248.772C134.174 248.772 137.158 247.021 133.479 243.736C129.801 240.452 136.142 245.394 138.08 234.318C140.38 221.191 148.441 202.354 143.602 190.978" fill="#7E8AF5"/>
<path d="M131.842 177.747C131.842 177.747 123.388 180.264 121.543 192.967C119.699 205.67 111.649 234.339 114.643 235.002C117.637 235.665 107.504 240.69 111.182 248.14C114.86 255.589 131.438 279.658 141.105 277.037C150.772 274.415 150.306 259.516 147.322 256.895C144.338 254.274 134.174 248.772 134.174 248.772C134.174 248.772 137.158 247.021 133.479 243.736C129.801 240.452 136.142 245.394 138.08 234.318C140.38 221.191 148.441 202.354 143.602 190.978" stroke="#263238" stroke-linecap="round" stroke-linejoin="round"/>
<path d="M132.36 236.95C132.36 236.95 119.243 233.841 115.783 239.136C112.322 244.43 121.233 238.048 129.78 240.234" stroke="#263238" stroke-linecap="round" stroke-linejoin="round"/>
<path d="M151.342 261.91C149.27 260.428 144.327 257.858 141.105 260.874C137.883 263.889 130.174 265.681 130.63 267.981C131.086 270.281 133.966 270.945 139.147 268.427C144.327 265.909 140.048 269.08 140.981 274.115C141.913 279.151 142.67 283.73 146.721 282.87C146.721 282.87 147.084 285.056 150.772 284.072C150.772 284.072 153.528 286.331 157.9 284.331C157.9 284.331 160.325 286.807 163.889 282.539C167.453 278.27 165.257 277.213 165.257 277.213C165.257 277.213 163.651 272.271 160.076 277.213C160.076 277.213 160.698 271.1 157.092 267.266C155.305 265.347 153.383 263.557 151.342 261.91Z" fill="white" stroke="#263238" stroke-linecap="round" stroke-linejoin="round"/>
<path d="M148.275 281.357C148.275 281.357 154.108 277.638 152.844 275.452C151.58 273.265 146.856 277.855 146.856 277.855C146.856 277.855 147.55 276.674 146.172 274.861" stroke="#263238" stroke-linecap="round" stroke-linejoin="round"/>
<path d="M152.492 282.59C152.492 282.59 161.309 279.845 159.289 277.213C157.496 274.892 153.704 277.555 153.704 277.555" stroke="#263238" stroke-linecap="round" stroke-linejoin="round"/>
<path d="M164.221 278.135C164.221 278.135 163.288 280.767 159.154 283.316" stroke="#263238" stroke-linecap="round" stroke-linejoin="round"/>
<path d="M149.591 270.385C150.839 272.308 152.577 273.864 154.626 274.892" stroke="#263238" stroke-linecap="round" stroke-linejoin="round"/>
<path d="M132.36 247.736C132.36 247.736 124.942 244.12 119.243 246.907" stroke="#263238" stroke-linecap="round" stroke-linejoin="round"/>
<path d="M188.455 178.441L182.529 176.306L175.856 178.441C175.856 178.441 180.343 185.175 182.156 185.497C182.156 185.497 188.652 235.934 190.704 259.485C192.755 283.036 192.082 285.212 192.082 285.212L201.054 292.558L207.613 283.295C207.613 283.295 204.163 246.254 199.676 224.237C196.896 210.775 192.61 197.669 186.901 185.165C186.901 185.165 189.543 181.777 188.455 178.441Z" fill="#7E8AF5"/>
<path opacity="0.3" d="M188.455 178.441L182.529 176.306L175.856 178.441C175.856 178.441 180.343 185.175 182.156 185.497C182.156 185.497 188.652 235.934 190.704 259.485C192.755 283.036 192.082 285.212 192.082 285.212L201.054 292.558L207.613 283.295C207.613 283.295 204.163 246.254 199.676 224.237C196.896 210.775 192.61 197.669 186.901 185.165C186.901 185.165 189.543 181.777 188.455 178.441Z" fill="black"/>
<path d="M188.455 178.441L182.529 176.306L175.856 178.441C175.856 178.441 180.343 185.175 182.156 185.497C182.156 185.497 188.652 235.934 190.704 259.485C192.755 283.036 192.082 285.212 192.082 285.212L201.054 292.558L207.613 283.295C207.613 283.295 204.163 246.254 199.676 224.237C196.896 210.775 192.61 197.669 186.901 185.165C186.901 185.165 189.543 181.777 188.455 178.441Z" stroke="#263238" stroke-linecap="round" stroke-linejoin="round"/>
<path d="M189.16 161.169C189.16 161.169 187.989 168.743 190.901 173.934C190.901 173.934 184.601 176.69 181.897 177.042C179.193 177.394 165.319 169.126 165.319 169.126C167.132 160.423 167.78 151.517 167.246 142.643C166.355 128.034 182.923 151.771 182.923 151.771L190.89 159.024L189.16 161.169Z" fill="white"/>
<path d="M191.729 161.863C191.729 161.863 191.895 166.785 184.912 166.619C177.928 166.453 170.987 156.071 169.816 153.481C168.645 150.891 167.257 138.706 167.257 138.706L184.87 143.659L193.418 161.169L191.729 161.863Z" fill="#263238" stroke="#263238" stroke-linecap="round" stroke-linejoin="round"/>
<path d="M189.16 161.169C189.16 161.169 187.989 168.743 190.901 173.934C190.901 173.934 184.601 176.69 181.897 177.042C179.193 177.394 165.319 169.126 165.319 169.126C167.132 160.423 167.78 151.517 167.246 142.643C166.355 128.034 182.923 151.771 182.923 151.771L190.89 159.024L189.16 161.169Z" stroke="#263238" stroke-linecap="round" stroke-linejoin="round"/>
<path d="M189.895 170.173C189.895 170.173 186.445 176.089 182.529 176.306C178.612 176.524 165.495 163.873 162.739 165.8C161.021 167.098 159.768 168.914 159.164 170.981L170.893 184.875C170.893 184.875 179.483 177.539 182.933 177.757C186.383 177.974 193.802 184.875 193.802 184.875V174.814C193.802 174.814 191.522 167.883 189.895 170.173Z" fill="#7E8AF5" stroke="#263238" stroke-linecap="round" stroke-linejoin="round"/>
<path d="M194.9 117.051C194.9 117.051 199.728 131.215 198.775 134.821C198.775 134.821 203.272 161.666 192.558 163.832C184.104 165.51 175.742 157.387 172.551 153.823C171.683 152.848 171.017 151.71 170.593 150.476L168.521 144.405C168.521 144.405 164.304 144.715 161.734 139.058C159.165 133.401 164.397 127.91 168.448 136.478C168.448 136.478 171.619 127.816 171.38 124.335C171.142 120.854 175.711 121.703 176.654 118.264C176.654 118.243 187.492 119.994 194.9 117.051Z" fill="white"/>
<path d="M194.9 117.051C194.9 117.051 199.728 131.215 198.775 134.821C198.775 134.821 203.272 161.666 192.558 163.832C184.104 165.51 175.742 157.387 172.551 153.823C171.683 152.848 171.017 151.71 170.593 150.476L168.521 144.405C168.521 144.405 164.304 144.715 161.734 139.058C159.165 133.401 164.397 127.91 168.448 136.478C168.448 136.478 171.619 127.816 171.38 124.335C171.142 120.854 175.711 121.703 176.654 118.264C176.654 118.243 187.492 119.994 194.9 117.051Z" stroke="#263238" stroke-linecap="round" stroke-linejoin="round"/>
<path d="M194.382 137.266L200.101 144.467C200.235 144.639 200.325 144.841 200.364 145.055C200.404 145.269 200.391 145.49 200.327 145.699C200.263 145.907 200.15 146.097 199.997 146.252C199.844 146.407 199.656 146.524 199.448 146.591L195.387 148.021" fill="white"/>
<path d="M194.382 137.266L200.101 144.467C200.235 144.639 200.325 144.841 200.364 145.055C200.404 145.269 200.391 145.49 200.327 145.699C200.263 145.907 200.15 146.097 199.997 146.252C199.844 146.407 199.656 146.524 199.448 146.591L195.387 148.021" stroke="#263238" stroke-linecap="round" stroke-linejoin="round"/>
<path d="M186.062 150.901C186.062 150.901 187.834 154.548 193.76 151.326" stroke="#263238" stroke-linecap="round" stroke-linejoin="round"/>
<path d="M193.408 136.976C193.584 140.561 191.823 143.545 189.481 143.648C187.139 143.752 185.098 140.934 184.922 137.359C184.746 133.785 186.507 132.749 188.849 132.645C191.191 132.541 193.232 133.391 193.408 136.976Z" stroke="#263238" stroke-linecap="round" stroke-linejoin="round"/>
<path d="M204.194 136.167C204.37 139.752 202.961 142.726 201.085 142.809C199.21 142.892 197.48 140.063 197.304 136.478C197.128 132.893 198.557 131.888 200.474 131.795C202.391 131.702 204.018 132.583 204.194 136.167Z" fill="white" stroke="#263238" stroke-linecap="round" stroke-linejoin="round"/>
<path d="M184.943 131.764C184.943 131.764 187.492 128.034 192.009 130.883" stroke="#263238" stroke-linecap="round" stroke-linejoin="round"/>
<path d="M197.376 130.873C198.18 129.951 199.278 129.336 200.485 129.132" stroke="#263238" stroke-linecap="round" stroke-linejoin="round"/>
<path d="M184.943 137.338C183.447 137.757 181.913 138.021 180.363 138.126C176.851 137.784 167.277 133.132 167.277 133.132" stroke="#263238" stroke-linecap="round" stroke-linejoin="round"/>
<path d="M197.252 135.888L193.584 136.52" stroke="#263238" stroke-linecap="round" stroke-linejoin="round"/>
<path d="M191.346 137.411C191.242 138.52 190.579 139.359 189.854 139.297C189.129 139.234 188.642 138.261 188.735 137.224C188.828 136.188 189.512 135.277 190.227 135.339C190.942 135.401 191.45 136.302 191.346 137.411Z" fill="#263238"/>
<path d="M200.277 136.199C200.174 137.235 199.676 138.115 199.158 138.064C198.64 138.012 198.309 137.121 198.412 136.043C198.516 134.966 199.003 134.137 199.521 134.178C200.039 134.22 200.371 135.131 200.277 136.199Z" fill="#263238"/>
<path d="M159.341 260.998C161.154 256.315 173.328 257.092 173.328 257.092" stroke="#263238" stroke-linecap="round" stroke-linejoin="round"/>
<path d="M188.383 263.36C175.483 266.468 161.444 268.696 159.589 264.313" stroke="#263238" stroke-linecap="round" stroke-linejoin="round"/>
<path d="M210.649 257.092C210.649 257.092 209.302 257.527 207.053 258.221" stroke="#263238" stroke-linecap="round" stroke-linejoin="round"/>
<path d="M475.675 450.906H20.5952V390.315C20.5952 390.315 108.778 356.123 222.636 356.123C361.444 356.175 475.675 450.906 475.675 450.906Z" fill="#7E8AF5" stroke="#263238" stroke-linecap="round" stroke-linejoin="round"/>
<path opacity="0.2" d="M288.17 373.074L234.448 365.831L179.804 375.063L233.526 382.316L288.17 373.074Z" fill="black"/>
<path d="M281.591 372.566L231.671 365.831L180.892 374.41L230.811 381.145L281.591 372.566Z" fill="white" stroke="#263238" stroke-linecap="round" stroke-linejoin="round"/>
<path d="M288.17 370.545L238.25 363.811L187.471 372.39L237.39 379.124L288.17 370.545Z" fill="white" stroke="#263238" stroke-linecap="round" stroke-linejoin="round"/>
<path opacity="0.2" d="M185.606 407.835C195.076 407.835 202.753 406.267 202.753 404.333C202.753 402.399 195.076 400.831 185.606 400.831C176.135 400.831 168.458 402.399 168.458 404.333C168.458 406.267 176.135 407.835 185.606 407.835Z" fill="black"/>
<path d="M195.521 403.38C195.521 404.354 189.989 405.141 183.15 405.141C176.312 405.141 170.789 404.354 170.789 403.38V380.171C170.789 379.197 176.322 378.41 183.15 378.41C189.978 378.41 195.521 379.197 195.521 380.171V403.38Z" fill="white" stroke="#263238" stroke-linecap="round" stroke-linejoin="round"/>
<path d="M195.521 380.171C195.521 381.145 189.989 381.932 183.15 381.932C176.312 381.932 170.789 381.145 170.789 380.171C170.789 379.197 176.322 378.41 183.15 378.41C189.978 378.41 195.521 379.197 195.521 380.171Z" fill="white" stroke="#263238" stroke-linecap="round" stroke-linejoin="round"/>
<path d="M194.029 401.183C193.702 401.19 193.384 401.078 193.133 400.869C192.881 400.66 192.714 400.366 192.662 400.044C192.639 399.868 192.651 399.689 192.698 399.518C192.746 399.347 192.827 399.187 192.937 399.048C193.047 398.909 193.184 398.793 193.34 398.708C193.495 398.623 193.666 398.569 193.843 398.552C194.154 398.552 201.655 397.391 201.655 390.636C201.655 388.937 201.199 387.786 200.308 387.206C198.64 386.17 195.521 386.978 194.558 387.362C194.22 387.496 193.844 387.495 193.507 387.36C193.169 387.225 192.897 386.966 192.745 386.636C192.678 386.474 192.645 386.3 192.647 386.125C192.649 385.949 192.687 385.776 192.758 385.616C192.828 385.455 192.93 385.311 193.058 385.19C193.186 385.07 193.336 384.977 193.501 384.916C194.029 384.709 198.682 382.989 201.852 385.02C203.562 386.118 204.432 388.004 204.432 390.636C204.432 397.888 197.759 400.696 194.226 401.173L194.029 401.183Z" fill="white" stroke="#263238" stroke-linecap="round" stroke-linejoin="round"/>
<path d="M211.799 386.077C210.98 386.864 210.421 387.61 210.566 387.755C210.711 387.9 211.498 387.362 212.327 386.574C213.156 385.787 213.705 385.041 213.56 384.906C213.415 384.771 212.628 385.3 211.799 386.077Z" fill="#263238" stroke="#263238" stroke-linecap="round" stroke-linejoin="round"/>
<path d="M216.254 378.959C212.866 382.181 210.918 385.548 211.902 386.481C212.887 387.413 216.44 385.569 219.829 382.337L241.659 361.563C245.047 358.34 246.995 354.963 246.011 354.03C245.027 353.098 241.483 354.942 238.095 358.175L216.254 378.959Z" fill="#7E8AF5" stroke="#263238" stroke-linecap="round" stroke-linejoin="round"/>
<path d="M238.458 364.619L237.556 365.479C236.924 364.971 236.303 364.443 235.702 363.852C235.101 363.262 234.521 362.682 233.992 362.091L234.894 361.231C235.422 361.822 235.992 362.412 236.603 362.992C237.214 363.573 237.836 364.111 238.458 364.619Z" fill="#263238" stroke="#263238" stroke-linecap="round" stroke-linejoin="round"/>
<path d="M243.327 354.372C243.327 354.372 241.815 353.439 238.354 355.988C234.894 358.537 231.671 362.941 230.065 362.795" stroke="#263238" stroke-linecap="round" stroke-linejoin="round"/>
<path d="M201.282 397.267C201.282 397.267 203.8 391.185 203.8 388.077C203.8 384.968 210.348 374.493 215.197 372.649C220.046 370.805 236.375 363.106 237.567 366.225C238.758 369.344 231.412 373.208 229.868 373.934C228.151 375.012 226.535 376.243 225.04 377.612C225.04 377.612 232.51 376.12 233.329 373.758C234.148 371.395 236.437 368.245 237.681 370.266C238.924 372.286 238.354 377.425 236.417 381.373V384.036C236.417 384.036 238.541 387.144 236.23 389.724L234.448 391.558C234.448 391.558 237.556 394.666 233.329 397.256C233.329 397.256 235.267 400.013 231.785 402.758C231.785 402.758 224.45 406.25 219.818 407.348C215.187 408.446 211.136 415.067 211.136 415.067L201.282 397.267Z" fill="white" stroke="#263238" stroke-linecap="round" stroke-linejoin="round"/>
<path d="M59.4079 291.946L71.5096 264.935L63.7181 242.307L62.941 216.352L84.2641 204.395L103.09 201.225L110.768 205.67L113.959 213.068C113.959 213.068 123.533 232.422 122.051 236.142C120.569 239.861 119.471 243.394 119.471 243.394C119.471 243.394 123.989 253.445 126.662 256.636C129.335 259.827 121.046 257.89 120.072 263.64C119.098 269.39 120.259 284.652 113.151 285.346C106.043 286.041 101.754 283.834 101.101 289.833C100.448 295.832 93.154 311.063 93.154 311.063L59.4079 291.946Z" fill="white" stroke="#263238" stroke-linecap="round" stroke-linejoin="round"/>
<path d="M118.777 183.963C117.741 180.482 107.763 185.321 106.727 192.78C106.727 192.78 105.452 181.383 102.158 180.295C99.2773 179.353 95.2986 184.523 96.7388 190.656C96.7388 190.656 85.9737 184.999 82.5027 186.315C79.9331 187.289 79.0317 192.304 84.5749 196.676C84.5749 196.676 50.9221 189.196 52.8907 218.507C52.8907 218.507 34.3858 232.298 68.6189 271.473C68.6189 271.473 76.7419 269.67 78.9799 268.365C80.2751 267.608 91.1024 259.04 91.1024 259.04C87.9941 257.931 82.5856 254.761 81.1143 250.937C79.2493 246.099 81.7463 240.317 86.2949 239.54C89.0198 239.074 90.5636 240.286 92.5115 242.462C92.5115 242.462 88.0252 236.794 88.3049 234.598C88.6572 231.852 95.4333 228.941 95.9307 226.216C96.1586 224.931 93.1435 222.403 93.9413 221.336C98.0029 215.917 117.409 222.196 115.42 204.229C113.431 186.263 120.227 188.843 118.777 183.963Z" fill="#263238" stroke="#263238" stroke-linecap="round" stroke-linejoin="round"/>
<path d="M118.062 241.985C118.062 243.405 117.782 244.565 117.326 244.575C116.87 244.586 116.487 243.446 116.446 242.027C116.404 240.607 116.725 239.447 117.171 239.436C117.616 239.426 118.02 240.586 118.062 241.985Z" fill="#263238"/>
<path d="M114.664 236.887C114.664 236.887 115.845 233.251 118.217 233.012" stroke="#263238" stroke-linecap="round" stroke-linejoin="round"/>
<path d="M89.2375 208.902C100.863 209.824 91.2475 192.76 91.2475 192.76" stroke="#7F7F7F" stroke-linecap="round" stroke-linejoin="round"/>
<path d="M59.7497 216.891C59.7497 216.891 68.8986 203.587 85.7457 208.239" stroke="#7F7F7F" stroke-linecap="round" stroke-linejoin="round"/>
<path d="M105.162 201.277C106.302 207.182 105.162 215.078 91.5894 216.031" stroke="#7F7F7F" stroke-linecap="round" stroke-linejoin="round"/>
<path d="M102.842 194.718C103.312 195.615 103.721 196.542 104.064 197.495" stroke="#7F7F7F" stroke-linecap="round" stroke-linejoin="round"/>
<path d="M115.399 450.906C115.399 450.906 125.885 342.923 113.451 322.543C101.018 302.163 63.8528 278.249 50.5595 288.61C4.43197 324.729 4.27655 355.574 1.34436 450.886L115.399 450.906Z" fill="#263238" stroke="#263238" stroke-linecap="round" stroke-linejoin="round"/>
<path d="M105.276 318.657C105.276 318.657 119.937 322.512 128.071 344.56C135.562 364.795 149.176 391.475 158.263 404.768C158.982 405.788 159.974 406.583 161.125 407.064C162.276 407.544 163.54 407.689 164.77 407.483C168.769 406.851 176.395 406.364 183.699 402.396C190.465 398.717 196.444 394.687 203.966 395.785C211.488 396.883 216.202 403.877 214.99 413.979C213.83 423.615 170.51 448.678 144.928 448.678C124.061 448.678 104.986 391.402 98.6142 374.327C92.2422 357.252 85.5904 319.787 105.276 318.657Z" fill="#263238" stroke="#263238" stroke-linecap="round" stroke-linejoin="round"/>
<path d="M97.5573 320.957C99.4654 319.547 101.755 318.745 104.126 318.657" stroke="#7F7F7F" stroke-linecap="round" stroke-linejoin="round"/>
<path d="M92.4493 329.018C92.8487 327.652 93.3941 326.332 94.076 325.081" stroke="#7F7F7F" stroke-linecap="round" stroke-linejoin="round"/>
<path d="M113.876 410.456C107.68 398.752 102.2 386.684 97.4642 374.317C93.4959 363.676 89.4136 345.13 91.662 332.396" stroke="#7F7F7F" stroke-linecap="round" stroke-linejoin="round"/>
<path d="M104.789 314.834C104.789 314.834 110.581 306.39 104.789 299.406C98.9976 292.423 72.5665 277.337 62.682 281.057C61.9365 281.302 61.2482 281.695 60.6587 282.212C60.0691 282.73 59.5905 283.362 59.2516 284.07C58.9128 284.777 58.7208 285.546 58.6871 286.33C58.6534 287.114 58.7787 287.897 59.0556 288.631C59.0556 288.631 78.9282 289.501 104.789 314.834Z" fill="#263238" stroke="#263238" stroke-linecap="round" stroke-linejoin="round"/>
<path d="M101.578 312.441C102.396 313.207 103.225 313.995 104.054 314.813" stroke="#7F7F7F" stroke-linecap="round" stroke-linejoin="round"/>
<path d="M65.8421 290.185C72.7115 292.257 83.8186 297.137 97.029 308.4" stroke="#7F7F7F" stroke-linecap="round" stroke-linejoin="round"/>
<path d="M58.3511 288.61C59.5157 288.698 60.6723 288.871 61.8117 289.128" stroke="#7F7F7F" stroke-linecap="round" stroke-linejoin="round"/>
<path d="M164.034 421.678C164.034 421.678 164.034 415.627 160.853 413.969C157.672 412.311 160.273 421.678 157.092 429.397" stroke="#7F7F7F" stroke-linecap="round" stroke-linejoin="round"/>
<path d="M130.454 355.594C130.454 355.594 133.065 355.864 135.375 381.197" stroke="#7F7F7F" stroke-linecap="round" stroke-linejoin="round"/>
<path d="M91.0507 258.978L93.2679 259.392C93.3413 262.51 94.0796 265.576 95.4334 268.385C97.5056 272.24 100.448 272.975 107.359 280.477C113.804 287.46 116.767 282.912 117.14 282.259C116.791 283.081 116.236 283.8 115.528 284.345C114.82 284.889 113.983 285.241 113.099 285.367C106.002 286.061 101.702 283.855 101.049 289.854C99.9094 285.212 96.2001 279.627 93.2679 272.644C91.4864 268.32 90.7276 263.643 91.0507 258.978Z" fill="#263238" stroke="#263238" stroke-linecap="round" stroke-linejoin="round"/>
<path opacity="0.3" d="M94.0761 254.615C94.8946 249.839 89.9316 240.11 92.5323 242.369C95.1329 244.627 98.521 252.958 102.572 256.128C106.623 259.299 106.24 266.728 112.032 263.609C114.556 262.202 117.528 261.831 120.321 262.573C120.189 262.907 120.096 263.254 120.041 263.609C119.077 269.39 120.227 284.621 113.12 285.315C111.072 285.468 109.018 285.513 106.965 285.45C102.945 281.243 97.2051 274.996 95.0086 271.369C91.4547 265.557 93.2679 259.392 94.0761 254.615Z" fill="#263238"/>
<path d="M118.725 268.427C118.725 268.427 115.088 266.841 115.161 264.562" stroke="#263238" stroke-linecap="round" stroke-linejoin="round"/>
</svg>
